<svg version="1.1" id="Layer_1" xmlns="http://www.w3.org/2000/svg" xmlns:xlink="http://www.w3.org/1999/xlink" x="0px" y="0px"
     width="100%" viewBox="0 0 924 321" enable-background="new 0 0 924 321" xml:space="preserve">
<path fill="#010000" opacity=".000000" stroke="none" 
    d="
M664.000000,322.000000 
    C444.166656,322.000000 224.833328,321.988800 5.500045,322.093475 
    C1.750785,322.095276 0.901058,321.249634 0.905309,317.499878 
    C1.023396,213.333359 1.021607,109.166641 0.904538,5.000107 
    C0.900690,1.576053 1.576572,0.904816 5.000031,0.905954 
    C310.333344,1.007415 615.666687,1.007415 920.999939,0.905954 
    C924.423462,0.904816 925.099304,1.576055 925.095459,5.000107 
    C924.978455,109.333313 924.978455,213.666702 925.095459,317.999878 
    C925.099304,321.423950 924.424133,322.100800 920.999878,322.095917 
    C835.500061,321.973755 750.000000,322.000000 664.000000,322.000000 
z"/>
<path fill="#B40F2E" opacity="1.000000" stroke="none" 
    d="
M410.680420,170.999359 
    C410.679138,158.838577 410.501617,147.173874 410.764252,135.519073 
    C410.867401,130.941483 409.382141,129.457199 404.791046,129.530426 
    C400.478912,129.599243 398.659546,130.469849 398.701263,135.328476 
    C398.930176,161.979630 398.810364,188.633804 398.806732,215.286942 
    C398.805695,222.828781 398.799774,222.825424 391.480560,223.750259 
    C385.864380,224.459930 380.194794,224.899689 374.651154,225.982635 
    C370.153931,226.861145 369.256073,225.164215 369.274902,221.084610 
    C369.399475,194.098892 369.409637,167.111923 369.260071,140.126450 
    C369.238098,136.161942 370.159607,133.358932 373.983978,131.817993 
    C374.813721,131.483643 375.936523,131.113739 375.830017,129.768677 
    C375.605560,129.565491 375.399384,129.211670 375.145844,129.173615 
    C366.732544,127.911026 366.734924,127.916321 369.061493,119.765350 
    C370.295837,115.440956 371.710663,111.155823 372.683929,106.773010 
    C373.467957,103.242149 375.168396,101.863838 378.878510,101.958183 
    C387.868011,102.186798 396.868774,101.935555 405.862183,102.068130 
    C409.246765,102.118019 411.479645,101.414917 410.971008,97.430443 
    C410.469116,93.498856 412.551849,92.618706 416.021454,92.752762 
    C422.343170,92.996994 428.677368,93.080124 435.003113,92.993591 
    C438.274139,92.948837 440.193329,93.846886 439.771271,97.480431 
    C439.362823,100.996506 441.012238,102.136017 444.409637,102.068413 
    C452.235748,101.912682 460.067993,101.965584 467.896423,102.052811 
    C477.961853,102.164963 482.968079,107.133278 482.975647,117.195938 
    C482.994873,142.848984 483.000763,168.502701 482.832977,194.154984 
    C482.714569,212.255386 471.790924,225.154465 455.147675,227.282806 
    C449.826019,227.963318 449.115173,227.351303 449.078278,221.943130 
    C449.052124,218.111908 449.050140,214.280243 449.076569,210.449036 
    C449.110107,205.584518 448.312561,200.766052 452.516449,196.605179 
    C454.768768,194.375870 454.690826,190.413971 454.931183,187.076996 
    C456.213501,169.272812 455.134338,151.444717 455.449921,133.630539 
    C455.496674,130.992783 454.528717,129.837051 451.697937,129.629608 
    C439.897736,128.764938 439.904053,128.677017 439.903809,140.517014 
    C439.903290,165.504333 439.772430,190.492935 440.018280,215.477829 
    C440.064606,220.186584 438.487427,221.946625 434.028168,222.474548 
    C428.414551,223.139160 422.868927,224.375351 417.292267,225.355484 
    C410.939697,226.472015 410.692841,226.289963 410.686371,219.975067 
    C410.669830,203.816513 410.680573,187.657944 410.680420,170.999359 
z"/>
<path fill="#B5102E" fill-rule="evenodd"
    d="
M604.193726,105.303314 
    C608.512024,104.393906 612.474609,103.765739 616.324524,102.721626 
    C620.438171,101.605927 622.857422,102.166161 622.242554,107.169518 
    C622.128174,108.099930 622.039307,109.185135 622.993347,110.030113 
    C624.722473,110.228302 625.151550,108.631653 625.572571,107.601662 
    C627.562256,102.734146 631.043579,101.466438 636.176025,101.568100 
    C652.492432,101.891266 668.819214,101.676117 685.142029,101.695595 
    C692.046997,101.703835 694.992981,103.790176 697.323608,110.432686 
    C699.163269,115.675987 699.753784,121.147095 699.759766,126.667755 
    C699.790283,154.982758 699.794678,183.297821 699.767639,211.612823 
    C699.760864,218.734909 696.612854,222.672104 689.678223,224.463577 
    C686.757507,225.218140 683.776184,225.408325 680.761597,225.405136 
    C658.442688,225.381531 636.123718,225.416382 613.804871,225.383514 
    C600.533752,225.363968 595.494019,220.236633 595.488647,206.832443 
    C595.476501,176.352127 595.426880,145.871643 595.519653,115.391609 
    C595.546997,106.410789 593.817444,107.422920 604.193726,105.303314 

    M662.909668,198.587677 
    C650.773254,198.586563 639.123474,198.491516 627.476807,198.639938 
    C623.840393,198.686279 622.066040,197.911377 622.104553,193.709030 
    C622.289124,173.575302 622.261475,153.438431 622.121948,133.303970 
    C622.096069,129.572586 623.364990,128.406631 627.037109,128.451462 
    C640.680603,128.618011 654.328857,128.633057 667.971802,128.446960 
    C671.908508,128.393280 673.131042,129.756653 673.102417,133.624161 
    C672.958374,153.092896 673.047607,172.563263 673.036133,192.033066 
    C673.032288,198.552078 673.006897,198.552673 666.392761,198.586090 
    C665.394287,198.591125 664.395874,198.587372 662.909668,198.587677 
z"/>
<path fill="#B40F2E" fill-rule="evenodd"
    d="
M275.149414,202.885010 
    C272.500366,198.233597 269.958740,193.932281 267.628632,189.519287 
    C266.450714,187.288406 265.173462,186.940552 262.822113,187.864899 
    C251.815308,192.191879 251.789978,192.125092 251.788330,203.911514 
    C251.787521,209.572998 251.655960,215.238297 251.826981,220.894501 
    C251.928375,224.248077 250.833237,225.780884 247.282059,225.667679 
    C241.626358,225.487427 235.960129,225.568649 230.299591,225.639175 
    C227.378952,225.675568 225.918198,224.480255 226.156342,221.471375 
    C226.195602,220.975357 226.101044,220.467209 226.155121,219.974167 
    C227.543259,207.315887 224.992371,195.523880 218.269669,184.697525 
    C216.091431,181.189651 216.906143,178.786972 220.579575,177.250275 
    C225.055054,175.378052 226.309830,172.100388 226.111938,167.345139 
    C225.766205,159.036423 226.392761,150.686768 226.033691,142.379272 
    C225.819260,137.417892 227.019791,134.008087 231.924515,132.289810 
    C233.117355,131.871933 234.403748,131.257385 235.211548,129.597153 
    C231.580093,127.950859 227.781403,128.813889 224.156342,128.832199 
    C220.385178,128.851242 218.995346,127.789825 219.967392,123.858467 
    C221.485199,117.719727 222.738358,111.510735 223.926880,105.297684 
    C224.420715,102.716141 225.614105,101.654762 228.283188,101.661713 
    C253.093582,101.726280 277.904724,101.618004 302.714325,101.774338 
    C308.981537,101.813828 314.326416,107.291489 314.432129,113.861382 
    C314.619598,125.509773 314.791168,137.195053 314.082397,148.810776 
    C313.392944,160.110001 306.947418,167.696045 296.594360,172.352722 
    C288.944550,175.793533 289.273773,175.989655 293.320099,182.967484 
    C298.549164,191.984985 305.270996,198.946564 315.875305,201.202759 
    C317.837738,201.620285 318.651886,202.731857 318.491425,204.741837 
    C317.921661,211.878418 317.344543,219.015564 316.903137,226.160721 
    C316.684540,229.699387 314.652954,229.227631 312.058228,229.101761 
    C294.272400,228.239029 284.038147,216.839813 275.149414,202.885010 

    M251.770416,157.705490 
    C251.773224,149.262650 251.887939,141.283386 251.731644,133.309402 
    C251.663467,129.831833 253.014740,128.640015 256.423767,128.693710 
    C265.728088,128.840302 275.038239,128.854828 284.341888,128.687653 
    C287.924774,128.623276 289.089447,130.143906 288.835083,133.457642 
    C288.695587,135.274979 288.725342,137.116623 288.826630,138.939102 
    C289.213013,145.891922 285.771667,150.238983 279.552612,152.713333 
    C271.986664,155.723587 264.340576,158.545929 256.866028,161.767166 
    C252.706223,163.559891 251.390381,162.318573 251.770416,157.705490 
z"/>
<path fill="#B40F2E" opacity="1.000000" stroke="none" 
    d="
M808.828430,207.375519 
    C804.363403,224.223267 791.312317,226.161819 777.732483,225.500809 
    C775.703918,225.402084 775.456909,223.852554 775.451294,222.274902 
    C775.428284,215.779739 775.492676,209.283600 775.398804,202.789658 
    C775.365967,200.518311 776.609802,199.614059 778.453064,198.837830 
    C781.762756,197.443985 783.059692,194.657455 783.117432,191.232910 
    C783.286743,181.190552 780.798096,172.199219 773.377197,164.865936 
    C764.067688,155.666214 754.108521,147.428329 742.010010,142.133530 
    C736.207825,139.594299 735.451233,140.101364 735.444031,146.360703 
    C735.416260,170.510971 735.437500,194.661285 735.422302,218.811584 
    C735.418091,225.518509 735.389343,225.528595 728.792542,225.543488 
    C723.629395,225.555145 718.464233,225.448502 713.303833,225.566086 
    C710.089539,225.639328 708.942505,224.302322 708.952820,221.104126 
    C709.076599,182.631317 709.130066,144.158234 709.131531,105.685211 
    C709.131653,102.714111 710.177124,101.493584 713.206055,101.561951 
    C719.198914,101.697220 725.198547,101.684952 731.192139,101.565849 
    C734.356995,101.502953 735.790771,102.692802 735.619263,105.961243 
    C735.455017,109.090775 735.583801,112.235687 735.583801,116.468246 
    C739.116699,113.061584 742.090637,114.613159 745.139099,115.443542 
    C758.801270,119.165009 770.088135,126.296585 778.242676,138.078949 
    C779.028137,139.213837 779.715820,141.263916 781.419128,140.721832 
    C783.419250,140.085266 782.674622,137.878006 782.686768,136.338211 
    C782.764221,126.512115 782.830750,116.683731 782.686218,106.859253 
    C782.632385,103.201889 783.488464,101.325745 787.688904,101.599045 
    C792.996155,101.944359 798.354919,101.903282 803.668762,101.612747 
    C807.822693,101.385620 809.097107,102.881088 809.067017,107.014175 
    C808.901978,129.664261 809.001770,152.316223 808.987610,174.967529 
    C808.980957,185.626160 808.922913,196.284744 808.828430,207.375519 
z"/>
<path fill="#B40F2E" opacity="1.000000" stroke="none" 
    d="
M579.448120,131.496826 
    C573.992188,132.574310 568.931702,133.593216 563.861084,134.559402 
    C562.063904,134.901855 560.313293,135.324402 559.220215,133.004684 
    C557.200378,128.717987 553.099304,128.155136 549.047363,128.027420 
    C543.222656,127.843788 537.387878,127.919266 531.558594,127.987427 
    C530.147949,128.003906 528.188782,127.286446 527.467712,128.884903 
    C526.715576,130.552231 528.626953,131.436142 529.619629,132.415237 
    C538.870300,141.539108 548.173096,150.610016 557.460266,159.696854 
    C564.961426,167.036179 572.387024,174.455048 579.996033,181.680771 
    C583.474426,184.983948 585.221436,188.937714 585.632690,193.567032 
    C586.154236,199.437439 585.513489,205.239212 583.888611,210.878403 
    C582.314941,216.339737 578.517700,219.991257 573.463196,222.344452 
    C568.399170,224.702087 563.033691,225.665894 557.448120,225.634705 
    C544.955139,225.564972 532.453125,225.283417 519.971680,225.655045 
    C512.672974,225.872360 507.503265,222.778839 503.282715,217.412415 
    C499.187775,212.205704 497.085236,206.062714 495.327240,199.764297 
    C494.605133,197.177338 495.765900,196.137299 498.003204,195.407425 
    C504.020233,193.444504 510.020416,191.424515 515.983276,189.303436 
    C518.392273,188.446503 519.664490,188.881638 520.270264,191.552811 
    C521.357056,196.345139 524.619690,198.292999 529.442200,198.208282 
    C535.936768,198.094193 542.434998,198.207138 548.931274,198.163681 
    C550.716187,198.151749 552.930237,198.572342 553.803162,196.528214 
    C554.662231,194.516403 552.966248,193.096344 551.688354,191.832123 
    C544.701599,184.920242 537.669006,178.054611 530.640259,171.185333 
    C520.752197,161.521713 510.985748,151.727509 500.886993,142.289078 
    C497.420197,139.048981 497.773285,137.203979 501.427399,134.743195 
    C503.707886,133.207458 506.243561,131.764267 507.800140,128.914749 
    C504.420959,127.088097 500.899811,128.139114 497.553894,127.989609 
    C494.729706,127.863396 493.624268,126.946121 494.232117,124.028481 
    C495.556824,117.669685 496.804535,111.292236 497.921906,104.894157 
    C498.363586,102.364998 499.780060,101.681206 502.083160,101.681664 
    C523.071777,101.685783 544.061829,101.500809 565.048035,101.713181 
    C571.308411,101.776527 576.107666,105.312912 579.052734,110.815025 
    C581.755371,115.864166 582.725098,121.478386 583.471802,127.123711 
    C583.858093,130.043411 582.217041,130.975510 579.448120,131.496826 
z"/>
<path fill="#B30F2E" opacity="1.000000" stroke="none" 
    d="
M205.744598,117.269798 
    C208.638931,122.667892 209.812622,128.174454 210.621826,133.817856 
    C211.055984,136.845642 209.988708,138.212967 206.953476,138.197037 
    C201.290710,138.167297 195.627548,138.163986 189.964844,138.198685 
    C188.064774,138.210312 186.853653,137.502869 186.238571,135.610199 
    C184.766708,131.081009 181.194656,129.709702 176.859146,129.697830 
    C166.532089,129.669556 156.204269,129.745636 145.878220,129.638977 
    C143.133026,129.610626 141.639465,130.717972 140.592651,133.189850 
    C137.797516,139.790146 134.993393,146.381760 133.200516,153.340652 
    C129.090134,169.294678 135.092651,185.592606 148.566406,195.198792 
    C160.062943,203.395309 178.205551,200.996307 189.160889,189.830963 
    C195.288406,183.585983 195.277359,183.594772 200.905960,190.671112 
    C203.601486,194.059967 206.317490,197.433624 209.084229,200.764297 
    C210.447571,202.405487 210.619507,203.701462 209.095612,205.531296 
    C193.556412,224.190399 168.775696,231.316956 145.264038,223.763596 
    C124.822983,217.196701 108.432007,194.639679 107.362976,171.426987 
    C106.963051,162.743057 107.763626,154.134079 109.430000,145.588806 
    C110.428482,140.468567 112.663345,136.688568 118.010437,135.042542 
    C120.987701,134.126022 123.743118,132.488846 127.457146,130.781799 
    C122.706223,128.832306 118.612572,129.722626 114.694595,129.758881 
    C110.567780,129.797058 108.893730,128.777679 109.858429,124.277206 
    C111.188728,118.071152 112.685440,111.960434 115.042313,106.050858 
    C116.017708,103.605179 117.300438,102.274979 120.136719,102.286018 
    C141.456863,102.368950 162.787003,101.971024 184.093552,102.519051 
    C193.742462,102.767235 200.693069,108.727295 205.744598,117.269798 
z"/>
<path fill="#B20F2D" opacity="1.000000" stroke="none" 
    d="
M355.986938,177.000000 
    C355.941711,191.808701 355.779694,206.118591 355.926636,220.425308 
    C355.967499,224.402817 354.521057,225.733978 350.699158,225.601761 
    C345.048798,225.406296 339.375916,225.339478 333.733124,225.624283 
    C329.621643,225.831802 328.234467,224.419418 328.293823,220.259048 
    C328.498016,205.952789 328.368042,191.641754 328.367584,177.332550 
    C328.366882,155.535965 328.481781,133.738327 328.279785,111.943611 
    C328.235260,107.139771 329.200195,104.547600 334.645935,104.320206 
    C339.763672,104.106522 344.837006,102.844681 349.931458,102.054237 
    C355.576813,101.178291 355.973145,101.479256 355.977600,107.116989 
    C355.995758,130.244644 355.986267,153.372330 355.986938,177.000000 
z"/>
</svg>